<?xml version="1.0" encoding="UTF-8" standalone="no"?>
    <svg
   xmlns:dc="http://purl.org/dc/elements/1.1/"
   xmlns:cc="http://creativecommons.org/ns#"
   xmlns:rdf="http://www.w3.org/1999/02/22-rdf-syntax-ns#"
   xmlns:svg="http://www.w3.org/2000/svg"
   xmlns="http://www.w3.org/2000/svg"
   xmlns:sodipodi="http://sodipodi.sourceforge.net/DTD/sodipodi-0.dtd"
   xmlns:inkscape="http://www.inkscape.org/namespaces/inkscape"
   viewBox="0 0 4140 2078"
   width="1024" height="512"
   version="1.1"
   id="svg356"
   sodipodi:docname="screen.svg"
   inkscape:version="1.0.2 (e86c870879, 2021-01-15, custom)">
 <metadata>
  <rdf:RDF>
   <cc:Work rdf:about="">
    <dc:format>image/svg+xml</dc:format>
    <dc:type rdf:resource="http://purl.org/dc/dcmitype/StillImage"/>
    <dc:title/>
    <cc:license rdf:resource="http://beamng.com/bCDDL-1.1.txt"/>
   </cc:Work>
  </rdf:RDF>
 </metadata>
  <sodipodi:namedview
     pagecolor="#303030"
     bordercolor="#3b3b3b"
     borderopacity="1"
     objecttolerance="10"
     gridtolerance="10"
     guidetolerance="10"
     inkscape:pageopacity="0"
     inkscape:pageshadow="2"
     inkscape:window-width="2560"
     inkscape:window-height="1387"
     id="namedview358"
     showgrid="false"
     inkscape:zoom="0.26763285"
     inkscape:cx="1996.5195"
     inkscape:cy="671.20444"
     inkscape:window-x="1912"
     inkscape:window-y="-8"
     inkscape:window-maximized="1"
     inkscape:current-layer="svg356"
     inkscape:document-rotation="0" />
  <defs
     id="defs4">
      <filter id="filterGrey" style="color-interpolation-filters:sRGB" x="-20" y="-20" height="40" width="40">
         <feColorMatrix result="result1" values="0.111 0.111 0.111 0 0.111 0.111 0.111 0 0.111 0.111 0.111 0 0 0 0 0 0 0 1 0"/>
      </filter>
    <style
       id="style2">
       .cls-2{font-size:700px;font-family:Kanit-Bold, Kanit;fill:#ceff00;}
       .cls-10,.cls-12,.cls-13,.cls-14,.cls-16,.cls-17,.cls-2,.cls-3,.cls-4,.cls-5,.cls-7,.cls-8{font-weight:700;}
       .cls-3{font-size:142px;letter-spacing:0.1em;}
       .cls-12,.cls-17,.cls-3,.cls-4{fill:#fff;}
       .cls-10,.cls-12,.cls-13,.cls-14,.cls-16,.cls-17,.cls-3,.cls-4,.cls-5,.cls-7,.cls-8{font-family:Kanit-SemiBold, Kanit;}
       .cls-4{font-size:459.74px;letter-spacing:0.1em;}
       .cls-5,.cls-7{font-size:100px;fill:#4d4d4d;}
       .cls-5{letter-spacing:0.09em;}
       .cls-6,.cls-7{letter-spacing:0.1em;}
       .cls-10,.cls-13,.cls-14,.cls-16,.cls-8{font-size:120px;}
       .cls-10,.cls-8{fill:#bdccd4;}
       .cls-9{letter-spacing:-0.02em;}
       .cls-11{letter-spacing:0em;}
       .cls-12{font-size:145px;text-align: end;text-anchor: end;}
       .cls-13{fill:#3fa9f5;}.cls-14{fill:#7ac943;}.cls-15{letter-spacing:-0.045em;}
       .cls-16{fill:#ff1d25;}.cls-17{font-size:200px;}
       .cls-18{fill:none;stroke:#ffffff;stroke-miterlimit:10;stroke-width:20px;}
       @keyframes blinkStopCol{
         0%{stop-color:#f00; stop-opacity:1;}
         100%{stop-color:#fff;stop-opacity:1;}
      }
      .blinkRpmBar{
         animation: 0.4s infinite blinkStopCol steps(2);
      }
      @keyframes blink{
         0%{fill:#f11}
         100%{}
      }
      .blink{
         animation: 0.25s infinite blink steps(2);
      }
      </style>
      <linearGradient
       class="blinkVelocityBar"
       id="linearGradientVelo">
      <stop
         style="stop-color:#00ffff;stop-opacity:1;"
         offset="0.00"
         id="velocity_stop_0" />
      <stop
         style="stop-color:#3c3c3c;stop-opacity:1"
         offset="1.00"
         id="velocity_stop_1" />
      <stop
         style="stop-color:#3c3c3c;stop-opacity:1;"
         offset="1.00"
         id="velocity_stop_2" />
      </linearGradient>
      <linearGradient
       class="blinkFuelBar"
       id="linearGradientFuel">
      <stop
         style="stop-color:#0000ff;stop-opacity:1;"
         offset="0.00"
         id="fuel_stop_0" />
      <stop
         style="stop-color:#3c3c3c;stop-opacity:1"
         offset="1.00"
         id="fuel_stop_1" />
      <stop
         style="stop-color:#3c3c3c;stop-opacity:1;"
         offset="1.00"
         id="fuel_stop_2" />
      </linearGradient>
      <linearGradient
       class="blinkBatteryBar"
       id="linearGradientBatt">
      <stop
         style="stop-color:#00ff00;stop-opacity:1;"
         offset="0.00"
         id="battery_stop_0" />
      <stop
         style="stop-color:#3c3c3c;stop-opacity:1"
         offset="1.00"
         id="battery_stop_1" />
      <stop
         style="stop-color:#3c3c3c;stop-opacity:1;"
         offset="1.00"
         id="battery_stop_2" />
      </linearGradient>
      <linearGradient
       class="blinkRPMBar"
       id="linearGradientRPM">
      <stop
         style="stop-color:#0000ff;stop-opacity:1;"
         offset="0"
         id="rpm_stop_0" />
      <stop
         style="stop-color:#3c3c3c;stop-opacity:1"
         offset="1.00"
         id="rpm_stop_1" />
      <stop
         style="stop-color:#3c3c3c;stop-opacity:1;"
         offset="1.00"
         id="rpm_stop_2" />
      </linearGradient>

      <linearGradient
       class="blinkWaterTemp"
       id="linearGradientWaterTemp"
       x1="0"
       x2="0"
       y1="1"
       y2="0">
      <stop
         style="stop-color:#0000ff;stop-opacity:1;"
         offset="0.00"
         id="wt_stop_0" />
      <stop
         style="stop-color:#3c3c3c;stop-opacity:1"
         offset="1.00"
         id="wt_stop_1" />
      <stop
         style="stop-color:#3c3c3c;stop-opacity:1;"
         offset="1.00"
         id="wt_stop_2" />
      </linearGradient>
      <linearGradient
       class="blinkOilTemp"
       id="linearGradientOilTemp"
       x1="0"
       x2="0"
       y1="1"
       y2="0">
      <stop
         style="stop-color:#ffff00;stop-opacity:1;"
         offset="0.00"
         id="ot_stop_0" />
      <stop
         style="stop-color:#3c3c3c;stop-opacity:1"
         offset="1.00"
         id="ot_stop_1" />
      <stop
         style="stop-color:#3c3c3c;stop-opacity:1;"
         offset="1.00"
         id="ot_stop_2" />
      </linearGradient>

      <linearGradient
       class="blinkAWDFL"
       id="linearGradientAWDFL"
       x1="0"
       x2="0"
       y1="1"
       y2="0">
      <stop
         style="stop-color:#ff0000;stop-opacity:1;"
         offset="0.00"
         id="fl_stop_0" />
      <stop
         style="stop-color:#3c3c3c;stop-opacity:1"
         offset="1.00"
         id="fl_stop_1" />
      <stop
         style="stop-color:#3c3c3c;stop-opacity:1;"
         offset="1.00"
         id="fl_stop_2" />
      </linearGradient>
      <linearGradient
       class="blinkAWDFR"
       id="linearGradientAWDFR"
       x1="0"
       x2="0"
       y1="1"
       y2="0">
      <stop
         style="stop-color:#ff0000;stop-opacity:1;"
         offset="0.00"
         id="fr_stop_0" />
      <stop
         style="stop-color:#3c3c3c;stop-opacity:1"
         offset="1.00"
         id="fr_stop_1" />
      <stop
         style="stop-color:#3c3c3c;stop-opacity:1;"
         offset="1.00"
         id="fr_stop_2" />
      </linearGradient>
      <linearGradient
       class="blinkAWDRL"
       id="linearGradientAWDRL"
       x1="0"
       x2="0"
       y1="1"
       y2="0">
      <stop
         style="stop-color:#ff0000;stop-opacity:1;"
         offset="0.00"
         id="rl_stop_0" />
      <stop
         style="stop-color:#3c3c3c;stop-opacity:1"
         offset="1.00"
         id="rl_stop_1" />
      <stop
         style="stop-color:#3c3c3c;stop-opacity:1;"
         offset="1.00"
         id="rl_stop_2" />
      </linearGradient>
      <linearGradient
       class="blinkAWDRR"
       id="linearGradientAWDRR"
       x1="0"
       x2="0"
       y1="1"
       y2="0">
      <stop
         style="stop-color:#ff0000;stop-opacity:1;"
         offset="0.00"
         id="rr_stop_0" />
      <stop
         style="stop-color:#3c3c3c;stop-opacity:1"
         offset="1.00"
         id="rr_stop_1" />
      <stop
         style="stop-color:#3c3c3c;stop-opacity:1;"
         offset="1.00"
         id="rr_stop_2" />
      </linearGradient>
      
      </defs>
  <title
     id="title6">screen</title>
  <g
     id="Info_0"
     data-name="Info 0"
     style="display:inline"
     inkscape:label="Velocity">
     <rect 
        id="velocity_back"
        x="630" y="1200" width="1200" height="30" rx="15"
        fill="#3c3c3c"/>
     <rect 
        id="velocity"
        x="630" y="1200" width="1200" height="30" rx="15"
        style="display:inline;fill:url(#linearGradientVelo)"/>
     <text
       class="velocity_txt"
       id="velocity_txt"
       style="font-weight:500;font-size:400px;font-family:Kanit-SemiBold, Kanit;display:inline;fill:#ffffff"
       x="700"
       y="1130">0</text>
     <text
       class="velocity_unit_txt"
       id="velocity_unit_txt"
       style="font-weight:700;font-size:120px;font-family:Kanit-SemiBold, Kanit;display:inline;fill:#ffffff"
       x="1430"
       y="1150">km/h</text>
     <text
       class="gear_txt"
       id="gear_txt"
       style="font-weight:500;font-size:200px;font-family:Kanit-SemiBold, Kanit;display:inline;fill:#ffffff"
       x="2020"
       y="1300">P</text>
     <text
       class="hybrid_mod_txt"
       id="hybrid_mod_txt"
       style="font-weight:500;font-size:72px;font-family:Kanit-SemiBold, Kanit;display:inline"
       fill="#33aaff"
       x="2725"
       y="1060">AUTO</text>
     <text
       class="mode_txt"
       id="mode_txt"
       style="font-weight:500;font-size:72px;font-family:Kanit-SemiBold, Kanit;display:inline"
       fill="#ffffff"
       x="1560"
       y="980">MODE</text>
     <text
       class="range_txt"
       id="range_txt"
       style="font-weight:500;font-size:60;font-family:Kanit-SemiBold, Kanit;display:inline;fill:#ffffff"
       x="1405"
       y="1305">00.0</text>
     <text
       class="range_unit_txt"
       id="range_unit_txt"
       style="font-weight:500;font-size:60;font-family:Kanit-SemiBold, Kanit;display:inline;fill:#ffffff"
       x="1555"
       y="1305">km range</text>
  </g>
  <g
     id="Info_1"
     data-name="Info 1"
     style="display:inline"
     inkscape:label="Fuel">
     <rect 
        id="fuel_back"
        x="630" y="1500" width="1200" height="30" rx="15"
        fill="#3c3c3c"/>
     <rect 
        id="fuel_back"
        x="630" y="1500" width="1200" height="30" rx="15"
        style="display:inline;fill:url(#linearGradientFuel)"/>
     <text
       class="fuel_txt"
       id="fuel_txt"
       style="font-weight:700;font-size:120;font-family:Kanit-SemiBold, Kanit;display:inline;fill:#ffffff"
       x="1430"
       y="1450">50</text>
     <text
       class="fuel_unit_txt"
       id="fuel_unit_txt"
       style="font-weight:500;font-size:75;font-family:Kanit-SemiBold, Kanit;display:inline;fill:#ffffff"
       x="1620"
       y="1450">L</text>
     <text
       class="fuel_desc_txt"
       id="fuel_desc_txt"
       style="font-weight:500;font-size:90;font-family:Kanit-SemiBold, Kanit;display:inline;fill:#ffffff"
       x="830"
       y="1450">Fuel</text>

     <text
       class="fuel_consumption_txt"
       id="fuel_consumption_txt"
       style="font-weight:500;font-size:60;font-family:Kanit-SemiBold, Kanit;display:inline;fill:#ffffff"
       x="1420"
       y="1605">00.0</text>
     <text
       class="fuel_consumption_unit_txt"
       id="fuel_consumption_unit_txt"
       style="font-weight:500;font-size:60;font-family:Kanit-SemiBold, Kanit;display:inline;fill:#ffffff"
       x="1570"
       y="1605">L/100km</text>
  </g>
  <g
     id="Info_2"
     data-name="Info 2"
     style="display:inline"
     inkscape:label="Battery">
     <rect 
        id="battery_back"
        x="630" y="1800" width="1200" height="30" rx="15"
        fill="#3c3c3c"/>
     <rect 
        id="battery"
        x="630" y="1800" width="1200" height="30" rx="15"
        style="display:inline;fill:url(#linearGradientBatt)"/>
     <text
       class="battery_txt"
       id="battery_txt"
       style="font-weight:700;font-size:120;font-family:Kanit-SemiBold, Kanit;display:inline;fill:#ffffff"
       x="1430"
       y="1750">45</text>
     <text
       class="battery_unit_txt"
       id="battery_unit_txt"
       style="font-weight:500;font-size:75;font-family:Kanit-SemiBold, Kanit;display:inline;fill:#ffffff"
       x="1610"
       y="1750">kWh</text>
     <text
       class="battery_desc_txt"
       id="battery_desc_txt"
       style="font-weight:500;font-size:90;font-family:Kanit-SemiBold, Kanit;display:inline;fill:#ffffff"
       x="830"
       y="1750">Battery</text>

     <text
       class="battery_consumption_txt"
       id="battery_consumption_txt"
       style="font-weight:500;font-size:60;font-family:Kanit-SemiBold, Kanit;display:inline;fill:#ffffff"
       x="1320"
       y="1905">00.0</text>
     <text
       class="battery_consumption_unit_txt"
       id="battery_consumption_unit_txt"
       style="font-weight:500;font-size:60;font-family:Kanit-SemiBold, Kanit;display:inline;fill:#ffffff"
       x="1470"
       y="1905">KWh/100km</text>
  </g>
  <g
     id="Info_3"
     data-name="Info 3"
     style="display:inline"
     inkscape:label="Power">
     <path 
        id="power_engine_back"
        d="M 2600 1750 A 500 500 0 1 1 3100 1750 "
        stroke="#3c3c3c"
        stroke-width="25"
        stroke-linecap="round"
        fill="transparent"/>
     <path 
        id="power_engine"
        class="power_engine"
        d="M 2600 1755 A 500 500 0 1 1 3100 1755 "
        stroke="#ff9100"
        stroke-width="25"
        stroke-linecap="round"
        fill="transparent"/>
     <path 
        id="power_motor_back"
        d="M 2640 1685 A 420 420 0 1 1 3060 1685 "
        stroke="#3c3c3c"
        stroke-width="25"
        stroke-linecap="round"
        fill="transparent"/>
     <!-- <path 
        id="power_motor"
        class="power_motor"
        d="M 2640 1685 A 420 420 0 1 1 3060 1685 "
        stroke="#00ff00"
        stroke-width="25"
        stroke-linecap="round"
        fill="transparent"/> -->
     <path 
        id="power_motor_p"
        class="power_motor_p"
        d="M 2850 901 A 420 420 0 0 1 3060 1685 "
        stroke="#00ff00"
        stroke-width="25"
        stroke-linecap="round"
        fill="transparent"/>
     <path 
        id="power_motor_m"
        class="power_motor_m"
        d="M 2850 901 A 420 420 0 0 0 2640 1685 "
        stroke="#0000ff"
        stroke-width="25"
        stroke-linecap="round"
        fill="transparent"/>
     <text
       class="cls-8"
       id="power_motor_txt"
       style="font-weight:750;font-size:80;font-family:Kanit-SemiBold, Kanit;display:inline;fill:#ffffff"
       x="2660"
       y="1200">0</text>
     <text
       class="cls-8"
       id="power_engine_txt"
       style="font-weight:750;font-size:80;font-family:Kanit-SemiBold, Kanit;display:inline;fill:#ffffff"
       x="2660"
       y="1360">0</text>
     <text
       class="cls-8"
       id="power_motor_unit_txt"
       style="font-weight:500;font-size:75;font-family:Kanit-SemiBold, Kanit;display:inline;fill:#ffffff"
       x="2870"
       y="1200">kW</text>
     <text
       class="cls-8"
       id="power_engine_unit_txt"
       style="font-weight:500;font-size:75;font-family:Kanit-SemiBold, Kanit;display:inline;fill:#ffffff"
       x="2855"
       y="1360">RPM</text>

     <text
       class="cls-8"
       id="mile_txt"
       style="font-weight:750;font-size:80;font-family:Kanit-SemiBold, Kanit;display:inline;fill:#ffffff"
       x="2660"
       y="1520">0</text>
     <text
       class="cls-8"
       id="mile_unit_txt"
       style="font-weight:500;font-size:75;font-family:Kanit-SemiBold, Kanit;display:inline;fill:#ffffff"
       x="2870"
       y="1520">km</text>
     <rect 
        id="water_temp"
        x="3450" y="1000" width="50" height="800" rx="20"
        fill="url(#linearGradientWaterTemp)"
        />
     <rect 
        id="oil_temp"
        x="3625" y="1000" width="50" height="800" rx="20"
        fill="url(#linearGradientOilTemp)"
        />
  </g>
  <g
     id="Info_4"
     data-name="Info 4"
     style="display:inline"
     inkscape:label="Signal">
     <path
       style="display:inline;opacity:1;fill-opacity:1;stroke:none;stroke-width:0.99999994px;stroke-linecap:butt;stroke-linejoin:miter;stroke-opacity:1"
       fill="#ffffff"
       d="m 410.46875,29.228516 -0.875,0.505859 -0.58203,1.009766 V 47.0625 h -1.83984 v 1.796875 l 14.60937,-0.0625 v -1.5625 h -1.89063 v -8.375 l 1.9375,-0.03125 c 0.20108,0.164334 0.40374,0.32625 0.42188,0.734375 l -0.0234,5.015625 c 0.0397,0.600378 0.61731,0.962965 1.11719,1.15625 0.5647,0.218343 1.28435,0.178787 1.8125,-0.117187 0.48907,-0.274092 0.96875,-1.375 0.96875,-1.375 l -0.0215,-7.66211 0.9121,-0.830078 c 0,0 -0.69885,-1.428209 -1.23437,-2 -0.45445,-0.485214 -1.625,-1.15625 -1.625,-1.15625 L 422.25,32.125 l -0.0937,0.796875 1.125,0.328125 0.14063,0.78125 c 0,0 0.76056,0.694283 1.03124,1.125 0.25777,0.410376 0.53907,1.349609 0.53907,1.349609 L 425,44.265625 c 0,0 -0.19483,0.547767 -0.42969,0.671875 -0.30198,0.159345 -0.72001,0.124882 -1.02343,-0.03125 -0.29065,-0.149783 -0.54133,-0.415747 -0.59376,-0.78125 l 0.0313,-4.453125 c 0,0 -0.16366,-0.676959 -0.36133,-0.953125 -0.20032,-0.279572 -0.79493,-0.65625 -0.79493,-0.65625 h -1.89062 v -7.734375 l -0.47656,-0.826172 -1.01953,-0.273437 z m 0.58203,1.867187 h 6.98242 v 6.939453 h -6.98242 z"
       id="fuel_logo"
       inkscape:connector-curvature="0"
       inkscape:label="#path5498"
       transform="translate(-1350,1210)scale(5)" />
     <path
       style="fill-opacity:1;stroke-width:0.1126475"
       fill="#ffffff"
       d="m 90.617938,54.572431 0.652342,-0.0083 0.04233,-0.415682 1.453669,0.01112 0.07048,0.391698 1.330101,-0.01448 0.04082,-0.382433 1.513849,0.0094 0.0067,0.389882 0.635571,-0.01013 0.0038,3.554612 -5.762086,0.0024 z m 5.368846,0.398895 -4.883102,0.0124 -0.01172,2.733847 4.882418,-0.0076 z m -4.126499,0.853756 -0.349867,0.0015 -9.94e-4,-0.330597 0.357578,-0.01106 -0.0017,-0.326301 0.35106,-0.0063 0.003,0.33402 0.327855,0.0035 -9.65e-4,0.321407 -0.340007,0.0072 0.0032,0.365356 -0.352101,0.004 z m 2.832033,-0.361293 0.759675,-0.0029 -0.0027,0.288304 -0.759424,0.0057 z"
       id="battery_logo"
       inkscape:connector-curvature="0"
       inkscape:label="#light_battery"
       transform="translate(-1140,590)scale(20)" />
     <path
       style="fill:none;stroke:#1e7ccc;stroke-width:1;stroke-linecap:square;stroke-linejoin:bevel;stroke-miterlimit:4;stroke-dasharray:none;stroke-opacity:1"
       d="m 670.9375,210.20117 c -0.64438,-0.002 -1.32879,0.18032 -1.61523,0.6836 -2.06725,3.63225 -2.19004,9.53456 -0.002,12.67578 0.66002,0.94754 2.37507,0.72943 3.45117,0.31054 3.1383,-1.22164 7.10295,-4.11448 6.80274,-7.46875 -0.3001,-3.35436 -4.7144,-5.50608 -8.02149,-6.14257 -0.18954,-0.0365 -0.40044,-0.0579 -0.61523,-0.0586 z m -11.71484,0.60938 5.61328,0.0449 z m 0,4.41992 5.61328,0.0449 z m 0.10937,4.02148 5.61328,0.0449 z m -0.043,4.39844 5.61133,0.043 z"
       id="light_highbeam"
       transform="translate(-2825,125)scale(5)" />
     <path
       style="fill:none;stroke:#00ff00;stroke-width:1;stroke-linecap:square;stroke-linejoin:bevel;stroke-miterlimit:4;stroke-dasharray:none;stroke-opacity:1"
       d="m 670.9375,210.20117 c -0.64438,-0.002 -1.32879,0.18032 -1.61523,0.6836 -2.06725,3.63225 -2.19004,9.53456 -0.002,12.67578 0.66002,0.94754 2.37507,0.72943 3.45117,0.31054 3.1383,-1.22164 7.10295,-4.11448 6.80274,-7.46875 -0.3001,-3.35436 -4.7144,-5.50608 -8.02149,-6.14257 -0.18954,-0.0365 -0.40044,-0.0579 -0.61523,-0.0586 z m -11.71484,5.60938 5.61328,-5 z m 0,4.41992 5.61328,-5 z m 0.10937,4.02148 5.61328,-5 z m -0.043,4.39844 5.61133,-5 z"
       id="light_lowbeam"
       transform="translate(-2825,325)scale(5)" />
     <path
       style="display:inline;fill:none;fill-opacity:1;stroke-width:0.39687499;stroke-linecap:butt;stroke-linejoin:miter;stroke-miterlimit:4;stroke-dasharray:none;stroke-opacity:1"
       d="m 59.800698,32.910148 0.239779,-0.190169 -3.2e-5,-0.363803 0.157096,-0.140559 0.239779,-4e-6 0.157096,0.115755 0.02479,0.421679 0.405144,-0.0083 0.347265,-0.429947 -0.01654,-1.744597 -0.239277,-0.429904 -0.456215,-5.8e-5 -0.0096,0.396789 -0.609514,8.5e-5 0.0083,-0.438216 -0.485404,-10e-4 -0.267004,-0.247043 -0.01754,-0.414415 -1.236767,-0.01432 1.89e-4,-0.580489 0.812959,0.0068 -2.059749,0.0069 0.888584,-0.01316 0.0013,0.575853 -1.04305,0.01122 -0.06615,0.264584 -0.239779,0.190169 -0.446484,0.05788 2e-6,0.983919 -0.669727,-0.01654 -0.01657,-0.913639 0.02894,1.835547 -0.01237,-0.921908 0.669727,0.01654 0.0083,1.25263 0.570508,0.0041 0.735873,0.727604 z"
       stroke="#ff0000"
       id="light_checkengine"
       transform="translate(880,600)scale(18)"
       sodipodi:nodetypes="cccccccccccccccccccccccccccccccccccccc" />
     <path
       style="fill-opacity:1;stroke-width:0.11264751"
       d="m 43.564756,44.002927 c -0.05398,-0.07374 -0.105724,-0.0651 -0.155804,0.0053 l -0.03901,0.278073 -0.555731,0.0065 c 0,0 -0.0042,-0.328414 -0.02703,-0.366798 -0.08262,-0.138817 -0.171515,-0.326766 -0.30957,-0.549234 -0.60271,-0.971235 -0.551298,-1.509879 0.08375,-2.310294 0.193842,-0.292648 0.258896,-1.148109 0.258896,-1.148109 l 0.587778,-0.01382 c 0,0 0.03152,0.549142 -0.04961,0.745179 -0.08113,0.196037 -0.192066,0.24656 -0.319943,0.445839 -0.470467,0.733159 -0.442312,1.284385 -0.169067,1.874572 l 0.327586,0.458859 c 0.873936,0.04127 1.653422,0.01393 2.52801,0.03414 l 0.381031,-0.572572 c 0.295644,-0.44426 0.285807,-0.77548 0.0067,-1.424379 -0.135972,-0.315129 -0.42353,-0.728171 -0.528895,-0.876552 -0.02826,-0.08389 -0.0202,-0.660843 -0.0202,-0.660843 l 0.597366,-0.0017 c 0,0 0.0062,0.451304 0.0062,0.667569 0,0.160251 0.176305,0.317024 0.376629,0.595971 0.30864,0.429773 0.368361,0.543179 0.368361,1.087385 0,0.5354 -0.134994,0.692339 -0.438641,1.150761 -0.200324,0.302435 -0.289813,0.488529 -0.289813,0.539864 0,0.03062 -0.08537,0.303628 -0.08537,0.303628 l -0.542006,0.0156 -0.02229,-0.285332 c -0.05044,-0.04933 -0.100119,-0.106545 -0.165694,0.0031 l -0.02429,0.281388 -0.292516,0.0044 -0.03209,-0.27807 c -0.04727,-0.02139 -0.08161,-0.101006 -0.157595,0.0068 l -0.02063,0.26515 -0.266299,0.006 -0.02038,-0.281617 c -0.04482,-0.08864 -0.109853,-0.05952 -0.150811,0.0024 l -0.02682,0.271428 -0.265426,0.004 -0.03945,-0.278527 c -0.0292,-0.06819 -0.100741,-0.06292 -0.121579,-5.31e-4 l -0.03708,0.275934 -0.326357,0.009 z m 0.5607,-1.126541 c 0.01003,-0.168546 0.216357,-0.340767 0.384817,-0.32938 0.169759,0.01147 0.35382,0.211536 0.33959,0.381087 -0.01391,0.165799 -0.223638,0.32467 -0.389544,0.312093 -0.164346,-0.01246 -0.344652,-0.199273 -0.334863,-0.3638 z m 0.0015,-0.75098 0.0062,-1.612228 c -0.0034,-0.372975 0.713852,-0.400612 0.720083,-0.02501 l -0.0064,1.642029 c -0.01117,0.432385 -0.724437,0.342306 -0.719832,-0.0048 z"
       fill="#ffa018"
       id="light_lowpressure"
       transform="translate(1040,450)scale(20)"
       sodipodi:nodetypes="ccccssccczssccsccccscscscccccccccccccccccccaaaaacccccc"/>
     <path 
       d="M 2179 800 H 2229 V 770 L 2269 810 L 2229 850 V 820 H 2179 Z" 
       fill="#00ff00"
       id="signal_right"
       transform="translate(150,0)scale(1)"/>
     <path 
       d="M 1979 800 H 1929 V 770 L 1889 810 L 1929 850 V 820 H 1979 Z" 
       fill="#00ff00"
       id="signal_left"
       transform="translate(-150,0)scale(1)"/>
     <path 
       d="M 2079 790 L 2039 859 H 2119 Z M 2079 743 L 1999 882 H 2159 Z" 
       fill="#ffffff"
       stroke="#ff0000"
       stroke-width="10"
       id="signal_flash"
       transform="translate(0,0)scale(1)"/>
     <path 
       d="M 475 1600 A 10 10 0 1 0 575 1600 A 10 10 0 1 0 475 1600 M 470 1560 A 1 2 0 1 0 470 1640 M 580 1560 A 1 2 0 1 1 580 1640 M 525 1570 V 1605 M 525 1620 V 1630" 
       fill="none"
       stroke="#ff0000"
       stroke-width="7"
       id="signal_p_brake"
       transform="translate(105,340)scale(0.8)"/>
     <text
       class="signal_auto_hold"
       id="signal_auto_hold"
       fill="#3c3c3c"
       style="font-weight:500;font-size:50;font-family:Kanit-SemiBold, Kanit;display:inline"
       x="455"
       y="1800">
       <tspan>AUTO</tspan>
       <tspan dx="-155" dy="55">HOLD</tspan>
       </text>
     <text
       class="abs_txt"
       id="abs_txt"
       style="font-weight:500;font-size:50;font-family:Kanit-SemiBold, Kanit;display:inline;fill:#ffffff"
       x="1430"
       y="980">ABS</text>
     <text
       class="tcs_txt"
       id="tcs_txt"
       style="font-weight:500;font-size:50;font-family:Kanit-SemiBold, Kanit;display:inline;fill:#ffffff"
       x="1430"
       y="900">TCS</text>
     <text
       class="esc_txt"
       id="esc_txt"
       style="font-weight:500;font-size:50;font-family:Kanit-SemiBold, Kanit;display:inline;fill:#ffffff"
       x="1430"
       y="820">ESC</text>
   </g>
  <g
     id="Info_5"
     data-name="Info 5"
     style="display:inline"
     inkscape:label="awd">
     <rect 
        id="wheelFL"
        x="2009" y="1400" width="30" height="150" rx="15"
        fill="url(#linearGradientAWDFL)"
        />
     <rect 
        id="wheelFR"
        x="2129" y="1400" width="30" height="150" rx="15"
        fill="url(#linearGradientAWDFR)"
        />
     <rect 
        id="wheelFL"
        x="2009" y="1650" width="30" height="150" rx="15"
        fill="url(#linearGradientAWDRL)"
        />
     <rect 
        id="wheelFR"
        x="2129" y="1650" width="30" height="150" rx="15"
        fill="url(#linearGradientAWDRR)"
        />
  </g>

  <g
       id="temp_logo"
       inkscape:label="#g984"
       style="display:inline;fill:#ffffff;stroke:#ffffff"
       transform="translate(215,700)scale(20)">
      <path
         sodipodi:nodetypes="caaac"
         inkscape:connector-curvature="0"
         id="path4693"
         d="m 159.31769,11.149973 c 0.0548,-0.0091 0.46573,-0.39968 0.74909,-0.401949 0.31867,-0.0026 0.53112,0.450728 0.84957,0.438489 0.2432,-0.0093 0.37782,-0.383017 0.62119,-0.383678 0.21046,-5.72e-4 0.53898,0.328867 0.53898,0.328867"
         style="fill:none;stroke-width:0.26458332px;stroke-linecap:butt;stroke-linejoin:miter;stroke-opacity:1" />
      <path
         sodipodi:nodetypes="caac"
         inkscape:connector-curvature="0"
         id="path4695"
         d="m 159.63743,12.246195 c 0,0 0.51369,-0.471107 0.8313,-0.465894 0.32374,0.0053 0.50764,0.511162 0.8313,0.502435 0.2651,-0.0071 0.65773,-0.447624 0.65773,-0.447624"
         style="fill:none;stroke-width:0.26458332px;stroke-linecap:butt;stroke-linejoin:miter;stroke-opacity:1" />
      <path
         sodipodi:nodetypes="caaaaaaaccccccccccccccacc"
         inkscape:connector-curvature="0"
         id="path4697"
         d="m 163.02865,10.922293 c 0,0 -0.32459,0.21904 -0.42587,0.380127 -0.12598,0.200375 -0.21078,0.446062 -0.19654,0.682321 0.0138,0.228115 0.10064,0.475112 0.26752,0.63124 0.24993,0.233828 0.6318,0.389865 0.96994,0.336891 0.33568,-0.05259 0.64232,-0.319963 0.81448,-0.612893 0.1143,-0.194479 0.13804,-0.449486 0.0924,-0.670399 -0.0383,-0.185321 -0.15893,-0.353132 -0.29404,-0.485624 -0.14003,-0.137307 -0.50915,-0.294804 -0.50915,-0.294804 l -0.008,-0.661833 0.7945,-0.0018 V 9.8345055 h -0.81277 V 9.3868813 h 0.83131 V 8.9757976 h -0.83131 V 8.5921198 h 0.79477 V 8.1719012 h -0.83131 l -0.006,-0.3141969 c -4.2e-4,-0.1435122 -0.18859,-0.1991316 -0.31238,-0.2009136 -0.13754,-0.00198 -0.35334,0.099841 -0.35334,0.2131353 z"
         style="fill-opacity:1;stroke:none;stroke-width:0.26458332px;stroke-linecap:butt;stroke-linejoin:miter;stroke-opacity:1" />
    </g>
  <g
       id="light_oil"
       inkscape:label="#light_oil"
       transform="translate(2035,175)scale(18)">
      <path
         sodipodi:nodetypes="cc"
         inkscape:connector-curvature="0"
         id="path1273"
         d="M 88.885177,39.675892 89.995541,39.6751"
         style="fill:none;stroke:#ffffff;stroke-width:0.39687499;stroke-linecap:butt;stroke-linejoin:miter;stroke-miterlimit:4;stroke-dasharray:none;stroke-opacity:1" />
      <path
         sodipodi:nodetypes="cc"
         inkscape:connector-curvature="0"
         id="path1277"
         d="m 89.443074,40.646112 -0.0056,-1.004089"
         style="fill:none;stroke:#ffffff;stroke-width:0.39687499;stroke-linecap:butt;stroke-linejoin:miter;stroke-miterlimit:4;stroke-dasharray:none;stroke-opacity:1" />
      <path
         inkscape:connector-curvature="0"
         id="path1279"
         d="m 87.978093,40.605273 2.745052,0.0041 0.673859,0.516766 3.079917,-0.756544 0.363802,0.417547"
         style="fill:none;stroke:#ffffff;stroke-width:0.39687499;stroke-linecap:butt;stroke-linejoin:miter;stroke-miterlimit:4;stroke-dasharray:none;stroke-opacity:1" />
      <path
         inkscape:connector-curvature="0"
         id="path1281"
         d="m 87.969824,40.783039 -1.384929,-0.355534 0.26045,-0.938443 1.153417,0.442349 -0.01654,2.6417 3.873667,0.02066 1.864484,-2.05052"
         style="fill:none;stroke:#ffffff;stroke-width:0.39687499;stroke-linecap:butt;stroke-linejoin:miter;stroke-miterlimit:4;stroke-dasharray:none;stroke-opacity:1" />
      <path
         sodipodi:nodetypes="caaac"
         inkscape:connector-curvature="0"
         id="path1283"
         d="m 95.081535,41.410392 c -0.206348,0.145134 -0.43066,0.381372 -0.402043,0.628384 0.02134,0.184171 0.213544,0.386201 0.398941,0.387573 0.183264,0.0014 0.376338,-0.195498 0.399975,-0.377236 0.03233,-0.248566 -0.215488,-0.453305 -0.396873,-0.638721 z"
         style="fill:#ffffff;fill-opacity:1;stroke:none;stroke-width:0.26458332px;stroke-linecap:butt;stroke-linejoin:miter;stroke-opacity:1" />
    </g>
  <g
     id="Ebene_3"
     data-name="Ebene 3"
     style="display:inline"
     inkscape:label="grid">
    <rect
       class="cls-18"
       x="381.5"
       y="634"
       width="3414"
       height="1325.5"
       rx="91.5"
       ry="91.5"
       id="rect347"
    />
    <!-- <line
       class="cls-18"
       x1="2079"
       y1="1960"
       x2="2079"
       y2="632"
       id="line353" /> -->
  </g>
</svg>